<svg width="19" height="19" viewBox="0 0 19 19" fill="none" xmlns="http://www.w3.org/2000/svg">
<path fill-rule="evenodd" clip-rule="evenodd" d="M15.4814 3.26459C14.6497 2.42747 13.6602 1.76371 12.5702 1.31174C11.4802 0.859772 10.3114 0.628591 9.13137 0.63159C4.18337 0.63159 0.155369 4.65859 0.153369 9.60859C0.153369 11.1906 0.566369 12.7346 1.35137 14.0966L0.0783691 18.7476L4.83737 17.4986C6.15376 18.2152 7.62857 18.5909 9.12737 18.5916H9.13137C14.0784 18.5916 18.1064 14.5646 18.1084 9.61459C18.1118 8.43507 17.8814 7.26658 17.4304 6.17665C16.9795 5.08672 16.3171 4.09696 15.4814 3.26459V3.26459ZM9.13137 17.0766H9.12837C7.79189 17.0767 6.48 16.7172 5.33037 16.0356L5.05837 15.8736L2.23437 16.6146L2.98737 13.8616L2.81037 13.5796C2.06316 12.39 1.6676 11.0134 1.66937 9.60859C1.67137 5.49459 5.01837 2.14759 9.13437 2.14759C10.1146 2.14541 11.0856 2.33767 11.991 2.71324C12.8965 3.08881 13.7184 3.64023 14.4094 4.33559C15.104 5.02763 15.6546 5.85048 16.0293 6.75659C16.404 7.66269 16.5953 8.63407 16.5924 9.61459C16.5904 13.7286 13.2434 17.0766 9.13137 17.0766ZM13.2244 11.4876C12.9994 11.3746 11.8974 10.8326 11.6914 10.7576C11.4864 10.6826 11.3374 10.6456 11.1874 10.8696C11.0374 11.0936 10.6074 11.5986 10.4764 11.7486C10.3454 11.8986 10.2144 11.9166 9.99037 11.8046C9.76637 11.6926 9.04337 11.4556 8.18637 10.6916C7.51937 10.0966 7.06937 9.36259 6.93837 9.13759C6.80737 8.91259 6.92437 8.79159 7.03737 8.67959C7.13837 8.57959 7.26137 8.41759 7.37337 8.28659C7.48537 8.15559 7.52237 8.06259 7.59737 7.91259C7.67237 7.76259 7.63537 7.63159 7.57837 7.51959C7.52237 7.40659 7.07337 6.30259 6.88637 5.85359C6.70537 5.41859 6.52037 5.47659 6.38237 5.47059C6.23945 5.46474 6.09641 5.46208 5.95337 5.46259C5.83962 5.46549 5.72771 5.49186 5.62463 5.54004C5.52155 5.58822 5.42954 5.65718 5.35437 5.74259C5.14837 5.96759 4.56937 6.50959 4.56937 7.61359C4.56937 8.71759 5.37337 9.78459 5.48537 9.93459C5.59737 10.0846 7.06737 12.3496 9.31737 13.3216C9.85337 13.5526 10.2714 13.6906 10.5964 13.7946C11.1334 13.9656 11.6224 13.9406 12.0094 13.8836C12.4404 13.8196 13.3364 13.3416 13.5234 12.8176C13.7104 12.2936 13.7104 11.8446 13.6544 11.7506C13.5984 11.6566 13.4474 11.5996 13.2244 11.4876" fill="#1D1F55"/>
</svg>
