<svg width="193" height="77" viewBox="0 0 193 77" fill="none" xmlns="http://www.w3.org/2000/svg">
<path d="M29.2693 46.479L29.547 44.0518L34.018 43.2986L35.8786 28.7076H20.9662L19.1056 43.2986L23.2711 44.0239L23.0767 46.4511H8.19208L8.44201 44.0518L11.9965 43.2986L16.1065 11.5779L12.6075 10.9641L12.9407 8.31378H27.6865L27.381 10.9641L23.1878 11.5779L21.4105 25.304H36.3229L38.1001 11.5779L33.9902 10.9641L34.2679 8.31378H49.1525L48.847 10.9641L45.1814 11.5779L41.0993 43.2986L44.987 44.0797L44.7093 46.479H29.2693Z" fill="#F0F0F0"/>
<path d="M61.149 47.0091C59.2607 47.0091 57.6223 46.6743 56.2338 46.0326C54.8175 45.391 53.6512 44.4703 52.707 43.2986C51.7628 42.1268 51.0408 40.7319 50.5687 39.1138C50.0966 37.4957 49.8467 35.7102 49.8467 33.7573C49.8467 31.7765 50.1522 29.991 50.7353 28.3728C51.3185 26.7547 52.1516 25.3598 53.2069 24.1881C54.2621 23.0163 55.5118 22.1236 56.9558 21.4819C58.3998 20.8402 59.9827 20.5334 61.7044 20.5334C64.4814 20.5334 66.6475 21.2866 68.2026 22.821C69.7299 24.3276 70.563 26.5873 70.7019 29.5725C70.7296 30.5489 70.7019 31.3859 70.6741 32.1113C70.6463 32.8366 70.563 33.4783 70.4519 34.0084H55.123V34.1478C55.1785 35.8497 55.4284 37.2725 55.845 38.4721C56.2615 39.6718 56.8169 40.6482 57.5112 41.4294C58.2054 42.1826 58.983 42.7406 59.8716 43.1033C60.7603 43.466 61.6767 43.6333 62.6486 43.6333C63.2873 43.6333 63.926 43.5776 64.5647 43.466C65.2034 43.3544 65.8421 43.187 66.4253 42.9917C67.0362 42.7964 67.5639 42.5732 68.0637 42.3221C68.5636 42.071 68.9801 41.8199 69.2856 41.5689L70.202 43.7449C69.7854 44.1634 69.2301 44.5819 68.5636 45.0004C67.8971 45.391 67.1751 45.7536 66.3698 46.0605C65.5644 46.3674 64.7036 46.6185 63.8149 46.7859C62.9818 46.8975 62.0654 47.0091 61.149 47.0091ZM60.5936 23.1837C59.8438 23.1837 59.1774 23.3232 58.5387 23.5743C57.9 23.8254 57.3446 24.2718 56.8725 24.8855C56.4004 25.4993 56.0116 26.3363 55.7061 27.3685C55.4007 28.4007 55.2063 29.712 55.1507 31.2743H65.4256C65.4534 30.9674 65.4811 30.6605 65.4811 30.3536C65.4811 30.0189 65.4811 29.712 65.4811 29.433C65.4811 28.596 65.3978 27.8149 65.2034 27.0616C65.0368 26.3084 64.7591 25.6388 64.3703 25.0529C63.9816 24.4671 63.4817 24.0207 62.8708 23.6859C62.2598 23.3511 61.51 23.1837 60.5936 23.1837Z" fill="#F0F0F0"/>
<path d="M74.0898 46.479V44.0239L77.7554 43.6333V12.6381L74.0898 12.2475V10.1272L81.5321 9.12283H81.5876L82.6984 9.90399V43.6612L86.5306 44.0518V46.5069H74.0898V46.479Z" fill="#F0F0F0"/>
<path d="M91.2515 45.2515V12.6381L87.6137 12.2475V10.1272L95.0004 9.12283H95.0838L96.1945 9.87609V23.5185C96.5833 23.1558 96.9999 22.7931 97.4997 22.4304C97.9718 22.0678 98.4994 21.733 99.0826 21.454C99.6658 21.175 100.304 20.9518 100.999 20.7844C101.693 20.617 102.443 20.5333 103.276 20.5333C104.553 20.5333 105.775 20.7565 106.969 21.2308C108.163 21.7051 109.219 22.4304 110.135 23.4348C111.051 24.4391 111.773 25.7225 112.329 27.2848C112.884 28.8471 113.162 30.7442 113.162 32.9482C113.162 34.9011 112.856 36.7145 112.273 38.4442C111.662 40.146 110.801 41.6525 109.691 42.908C108.58 44.1634 107.191 45.1678 105.581 45.921C103.97 46.6464 102.165 47.0091 100.166 47.0091C99.0548 47.0091 97.9996 46.9533 96.9721 46.8138C95.9446 46.6743 95.056 46.5348 94.2507 46.3395C93.4453 46.1442 92.7789 45.9489 92.2512 45.7536C91.7514 45.5583 91.3904 45.391 91.2515 45.2515ZM101.221 23.9091C100.638 23.9091 100.082 23.9928 99.5547 24.1323C99.0271 24.2717 98.5827 24.467 98.1384 24.6902C97.7219 24.9134 97.3331 25.1645 96.9999 25.4156C96.6666 25.6946 96.3889 25.9457 96.1668 26.1967V42.9359C96.2779 43.187 96.4445 43.4102 96.7222 43.6054C96.9999 43.8007 97.3053 43.9402 97.6941 44.0797C98.0829 44.2192 98.4994 44.3029 98.9715 44.3587C99.4436 44.4145 99.9435 44.4703 100.471 44.4703C101.526 44.4703 102.471 44.2471 103.359 43.8007C104.248 43.3544 104.998 42.6848 105.636 41.792C106.275 40.8993 106.775 39.7833 107.164 38.4442C107.525 37.1051 107.719 35.5428 107.775 33.7573C107.802 32.0833 107.663 30.6605 107.33 29.433C106.997 28.2054 106.553 27.1732 105.97 26.3641C105.386 25.5551 104.664 24.9413 103.859 24.5507C103.054 24.1044 102.165 23.9091 101.221 23.9091Z" fill="#F0F0F0"/>
<path d="M116.911 39.8113C116.911 38.7511 117.105 37.8026 117.522 36.9656C117.91 36.1286 118.466 35.4033 119.16 34.7616C119.854 34.1199 120.66 33.5899 121.604 33.1435C122.548 32.6971 123.548 32.3344 124.631 32.0555C125.714 31.7765 126.852 31.5533 128.019 31.4417C129.185 31.3301 130.351 31.2185 131.518 31.1906V30.0189C131.518 28.9866 131.434 28.0939 131.296 27.3964C131.157 26.671 130.907 26.0852 130.518 25.6388C130.157 25.1924 129.685 24.8576 129.074 24.6623C128.463 24.4671 127.713 24.3555 126.769 24.3555C125.964 24.3555 125.186 24.4392 124.381 24.5786C123.576 24.7181 122.826 24.9134 122.076 25.1366C121.354 25.3598 120.66 25.583 120.049 25.8341C119.438 26.0852 118.91 26.3084 118.521 26.5036H118.494L117.494 24.3555C117.772 24.0765 118.271 23.7417 118.966 23.3232C119.688 22.9047 120.521 22.5142 121.465 22.1236C122.437 21.733 123.464 21.3982 124.575 21.1192C125.686 20.8402 126.797 20.7007 127.908 20.7007C129.463 20.7007 130.768 20.8681 131.851 21.175C132.934 21.4819 133.795 22.012 134.461 22.7094C135.128 23.4069 135.6 24.3276 135.878 25.4435C136.155 26.5594 136.322 27.9265 136.322 29.5446V44.0518H139.071V46.2C138.793 46.2837 138.46 46.3674 138.071 46.4511C137.683 46.5348 137.266 46.6464 136.849 46.7301C136.433 46.8138 135.989 46.8696 135.544 46.9533C135.1 47.0091 134.683 47.037 134.295 47.037C133.878 47.037 133.517 47.0091 133.212 46.9812C132.906 46.9533 132.656 46.8417 132.462 46.7022C132.267 46.5348 132.129 46.3116 132.018 46.0047C131.934 45.6978 131.879 45.2794 131.879 44.7493V43.9123C131.684 44.0797 131.379 44.3587 130.934 44.6935C130.49 45.0283 129.963 45.391 129.324 45.7257C128.685 46.0605 127.963 46.3674 127.158 46.6464C126.352 46.8975 125.464 47.037 124.547 47.037C123.52 47.037 122.548 46.8975 121.632 46.6185C120.715 46.3395 119.91 45.921 119.188 45.3352C118.494 44.7493 117.938 44.0239 117.494 43.1033C117.133 42.1547 116.911 41.0667 116.911 39.8113ZM126.491 43.6055C126.797 43.6055 127.158 43.5776 127.602 43.4939C128.019 43.4102 128.463 43.2986 128.935 43.1591C129.379 43.0196 129.851 42.8243 130.296 42.6011C130.74 42.3779 131.157 42.1268 131.518 41.8757V33.7015C129.74 33.7015 128.269 33.8689 127.075 34.1757C125.88 34.4826 124.936 34.9011 124.242 35.4033C123.548 35.9055 123.02 36.4913 122.742 37.1609C122.437 37.8026 122.298 38.5 122.298 39.1975C122.298 40.0065 122.409 40.704 122.631 41.262C122.853 41.8199 123.131 42.2942 123.52 42.629C123.909 42.9917 124.353 43.2428 124.853 43.4102C125.353 43.5218 125.908 43.6055 126.491 43.6055Z" fill="#F0F0F0"/>
<path d="M143.237 45.0562V39.2254H146.375L147.291 42.5174C147.43 42.7685 147.652 42.9917 147.985 43.2149C148.318 43.4381 148.707 43.6612 149.124 43.8286C149.568 44.0239 150.068 44.1634 150.596 44.275C151.123 44.3866 151.706 44.4424 152.289 44.4424C153.206 44.4424 153.956 44.3308 154.539 44.1355C155.122 43.9402 155.594 43.6612 155.927 43.3544C156.261 43.0196 156.51 42.6569 156.622 42.2105C156.76 41.7641 156.816 41.3178 156.816 40.8714C156.816 40.2855 156.677 39.7833 156.427 39.3091C156.177 38.8348 155.761 38.3884 155.233 37.9699C154.705 37.5515 154.011 37.133 153.178 36.7145C152.345 36.296 151.345 35.8775 150.207 35.4312C149.013 34.9848 147.985 34.4826 147.097 33.9525C146.236 33.4225 145.514 32.8645 144.931 32.1949C144.347 31.5254 143.931 30.8279 143.653 30.0467C143.375 29.2656 143.237 28.3449 143.237 27.3406C143.237 26.3083 143.459 25.3877 143.931 24.5786C144.403 23.7417 145.042 23.0442 145.847 22.4583C146.68 21.8725 147.624 21.3982 148.735 21.0913C149.846 20.7844 151.068 20.617 152.345 20.617C153.261 20.617 154.095 20.6728 154.872 20.7844C155.65 20.896 156.344 21.0355 156.955 21.175C157.566 21.3145 158.121 21.4819 158.593 21.6493C159.065 21.8167 159.426 21.9283 159.704 22.0399V27.6196L156.76 27.5917L155.788 24.7181C155.594 24.3275 155.178 23.9649 154.539 23.6301C153.9 23.2953 153.178 23.1558 152.178 23.1558C151.401 23.1279 150.762 23.2116 150.207 23.379C149.651 23.5464 149.207 23.7696 148.874 24.0486C148.541 24.3275 148.291 24.6623 148.124 25.025C147.957 25.3877 147.874 25.8062 147.874 26.2246C147.874 27.0337 148.041 27.6754 148.374 28.1775C148.707 28.6797 149.151 29.0982 149.707 29.4609C150.262 29.8236 150.901 30.1304 151.595 30.3815C152.317 30.6605 153.039 30.9395 153.761 31.2743C154.789 31.7207 155.761 32.1949 156.677 32.6692C157.594 33.1714 158.427 33.7294 159.121 34.3431C159.843 34.9848 160.398 35.7102 160.815 36.5471C161.231 37.3841 161.454 38.3884 161.454 39.5044C161.454 40.6203 161.231 41.6525 160.787 42.5732C160.343 43.4939 159.732 44.275 158.899 44.9167C158.066 45.5583 157.066 46.0605 155.872 46.3953C154.678 46.7301 153.345 46.9254 151.845 46.9254C151.04 46.9254 150.235 46.8696 149.374 46.7301C148.513 46.5906 147.707 46.4232 146.902 46.2279C146.125 46.0326 145.403 45.8373 144.764 45.5862C144.125 45.3352 143.625 45.2515 143.237 45.0562Z" fill="#F0F0F0"/>
<path d="M166.397 45.0562V39.2254H169.535L170.451 42.5174C170.59 42.7685 170.812 42.9917 171.145 43.2149C171.478 43.4381 171.867 43.6613 172.284 43.8286C172.728 44.0239 173.228 44.1634 173.756 44.275C174.283 44.3866 174.866 44.4424 175.449 44.4424C176.366 44.4424 177.116 44.3308 177.699 44.1355C178.282 43.9402 178.754 43.6612 179.087 43.3544C179.421 43.0196 179.671 42.6569 179.782 42.2105C179.92 41.7641 179.976 41.3178 179.976 40.8714C179.976 40.2855 179.837 39.7833 179.587 39.3091C179.337 38.8348 178.921 38.3884 178.393 37.9699C177.865 37.5515 177.171 37.133 176.338 36.7145C175.505 36.296 174.505 35.8775 173.367 35.4312C172.173 34.9848 171.145 34.4826 170.257 33.9525C169.396 33.4225 168.674 32.8645 168.09 32.1949C167.507 31.5254 167.091 30.8279 166.813 30.0467C166.535 29.2656 166.397 28.3449 166.397 27.3406C166.397 26.3083 166.619 25.3877 167.091 24.5786C167.563 23.7417 168.202 23.0442 169.007 22.4583C169.84 21.8725 170.784 21.3982 171.895 21.0913C173.006 20.7844 174.228 20.617 175.505 20.617C176.421 20.617 177.255 20.6728 178.032 20.7844C178.81 20.896 179.504 21.0355 180.115 21.175C180.726 21.3145 181.281 21.4819 181.753 21.6493C182.225 21.8167 182.586 21.9283 182.864 22.0399V27.6196L179.92 27.5917L178.948 24.7181C178.754 24.3275 178.338 23.9649 177.699 23.6301C177.06 23.2953 176.227 23.1279 175.227 23.1279C174.45 23.1 173.811 23.1837 173.256 23.3511C172.7 23.5185 172.256 23.7417 171.923 24.0207C171.589 24.2996 171.34 24.6344 171.173 24.9971C171.006 25.3598 170.923 25.7783 170.923 26.1967C170.923 27.0058 171.09 27.6475 171.423 28.1496C171.756 28.6518 172.2 29.0703 172.756 29.433C173.311 29.7957 173.95 30.1025 174.644 30.3536C175.366 30.6326 176.088 30.9116 176.81 31.2464C177.838 31.6928 178.81 32.167 179.726 32.6413C180.642 33.1435 181.476 33.7015 182.17 34.3152C182.892 34.9569 183.447 35.6823 183.864 36.5192C184.28 37.3562 184.502 38.3605 184.502 39.4765C184.502 40.5924 184.28 41.6247 183.836 42.5453C183.392 43.466 182.781 44.2471 181.948 44.8888C181.115 45.5305 180.115 46.0326 178.921 46.3674C177.727 46.7022 176.394 46.8975 174.894 46.8975C174.089 46.8975 173.283 46.8417 172.423 46.7022C171.562 46.5627 170.756 46.3953 169.951 46.2C169.174 46.0047 168.452 45.8094 167.813 45.5584C167.174 45.3073 166.785 45.2515 166.397 45.0562Z" fill="#F0F0F0"/>
<path d="M22.1325 64.7804L23.0767 57.6942L22.3269 57.2478L22.438 56.6062L24.5762 56.2156L24.9373 56.4388L24.8262 58.2522C24.9095 58.029 25.0206 57.8058 25.1594 57.5547C25.2983 57.3036 25.4927 57.0804 25.7148 56.8851C25.937 56.6899 26.1869 56.5225 26.4368 56.383C26.7145 56.2435 26.9922 56.1877 27.3255 56.1877C27.4365 56.1877 27.5198 56.1877 27.6032 56.2156C27.6865 56.2435 27.7698 56.2714 27.7975 56.2993L27.381 58.4475C27.3255 58.4196 27.2421 58.3638 27.1033 58.3359C26.9645 58.2801 26.7978 58.2801 26.5757 58.2801C26.4091 58.2801 26.2424 58.308 26.0758 58.3359C25.9092 58.3638 25.7426 58.4196 25.576 58.5033C25.4093 58.587 25.2705 58.6707 25.1316 58.8102C24.9928 58.9217 24.8817 59.0891 24.7706 59.2565L24.0486 64.7804H22.1325V64.7804Z" fill="#F0F0F0"/>
<path d="M27.9919 61.5163C27.9919 60.7909 28.103 60.0935 28.3529 59.4518C28.575 58.8101 28.9083 58.2522 29.3248 57.7779C29.7414 57.3036 30.2135 56.913 30.7689 56.6341C31.3243 56.3551 31.9074 56.2156 32.5739 56.2156C32.9627 56.2156 33.2959 56.2714 33.5736 56.3551C33.8513 56.4388 34.1012 56.5783 34.2678 56.7456C34.4622 56.913 34.6011 57.0804 34.6844 57.3036C34.7677 57.5268 34.8232 57.75 34.8232 58.0011C34.8232 58.3917 34.7677 58.7264 34.6011 59.0333C34.4345 59.3402 34.2401 59.6192 33.9901 59.8424C33.7402 60.0935 33.4348 60.2888 33.1015 60.4562C32.7683 60.6235 32.435 60.763 32.074 60.8746C31.7408 60.9862 31.3798 61.0699 31.0466 61.1257C30.7133 61.1815 30.4078 61.2094 30.1302 61.2094C30.1302 61.5163 30.1302 61.8232 30.1857 62.1022C30.2412 62.3812 30.3245 62.6322 30.4356 62.8554C30.5467 63.0786 30.7133 63.246 30.9077 63.3855C31.1021 63.525 31.3243 63.5808 31.6019 63.5808C31.8519 63.5808 32.074 63.5529 32.2962 63.4971C32.5184 63.4413 32.7127 63.3576 32.9071 63.246C33.1015 63.1344 33.2681 63.0228 33.4625 62.8833C33.6291 62.7438 33.7958 62.6043 33.9346 62.437L34.3512 63.1344C34.2401 63.2739 34.1012 63.4692 33.9068 63.6366C33.7124 63.804 33.4903 63.9993 33.2126 64.1667C32.9349 64.3341 32.6294 64.4735 32.2684 64.5851C31.9074 64.6967 31.5186 64.7525 31.1021 64.7525C30.5467 64.7525 30.0746 64.6688 29.6858 64.4736C29.2971 64.2783 28.9638 64.0272 28.7139 63.7203C28.464 63.4134 28.2973 63.0507 28.1863 62.6601C28.0474 62.3254 27.9919 61.9348 27.9919 61.5163ZM30.1579 60.3725C30.4078 60.3725 30.6855 60.3167 30.991 60.233C31.2965 60.1214 31.6019 59.9819 31.8796 59.7866C32.1573 59.5913 32.3795 59.3681 32.5739 59.117C32.7683 58.8659 32.8516 58.5312 32.8516 58.1964C32.8516 57.8616 32.7683 57.6105 32.6572 57.4431C32.5184 57.2757 32.3517 57.192 32.1296 57.192C31.9074 57.192 31.713 57.2478 31.5464 57.3315C31.3798 57.4431 31.2132 57.5547 31.0743 57.7221C30.9355 57.8895 30.8244 58.0848 30.7133 58.308C30.6022 58.5312 30.5189 58.7543 30.4356 58.9775C30.3523 59.2007 30.2968 59.4518 30.269 59.675C30.1857 59.954 30.1579 60.1772 30.1579 60.3725Z" fill="#F0F0F0"/>
<path d="M38.3777 64.7804C37.9612 64.7804 37.5724 64.6967 37.2392 64.5572C36.906 64.4178 36.6283 64.1946 36.3783 63.9156C36.1562 63.6366 35.9618 63.2739 35.8229 62.8554C35.6841 62.437 35.6285 61.9627 35.6285 61.4326C35.6285 61.042 35.6563 60.6514 35.7396 60.233C35.8229 59.8145 35.934 59.4239 36.1006 59.0333C36.2672 58.6428 36.4894 58.2801 36.7393 57.9453C36.9893 57.6105 37.2947 57.3036 37.628 57.0525C37.9612 56.8014 38.35 56.6062 38.7665 56.4388C39.1831 56.2993 39.6552 56.2156 40.155 56.2156C40.2939 56.2156 40.4327 56.2156 40.5993 56.2435C40.7659 56.2714 40.9048 56.2714 41.0714 56.2993C41.238 56.3272 41.3769 56.3551 41.5157 56.383C41.6546 56.4109 41.7934 56.4667 41.9045 56.5225L41.3769 58.4475C41.3769 58.4475 41.3491 58.4475 41.3213 58.4196C41.2936 58.4196 41.238 58.4196 41.2103 58.3917C41.1547 58.3917 41.127 58.3917 41.0992 58.3917C41.0714 58.3917 41.0436 58.3917 41.0436 58.3917C40.9603 58.2801 40.8493 58.1685 40.7382 58.029C40.6271 57.9174 40.516 57.7779 40.4049 57.6942C40.2939 57.5826 40.1828 57.4989 40.0717 57.4152C39.9606 57.3315 39.8495 57.3036 39.7662 57.3036C39.4885 57.3036 39.2386 57.3873 38.9887 57.5826C38.7388 57.7779 38.5166 58.029 38.3222 58.3638C38.1278 58.6985 37.989 59.117 37.8779 59.6192C37.7668 60.1214 37.7113 60.6515 37.739 61.2652C37.739 62.0743 37.8779 62.6322 38.1 62.9949C38.3222 63.3576 38.6832 63.525 39.0998 63.525C39.3219 63.525 39.4885 63.4971 39.6829 63.4692C39.8495 63.4413 40.0162 63.3576 40.155 63.3018C40.2939 63.2181 40.4605 63.1344 40.5993 63.0228C40.7382 62.9112 40.877 62.7996 41.0159 62.6601L41.4047 63.3297C41.3213 63.4692 41.1825 63.6087 40.9881 63.7761C40.8215 63.9435 40.5993 64.1109 40.3494 64.2504C40.0995 64.3899 39.794 64.5294 39.4885 64.613C39.1275 64.7525 38.7665 64.7804 38.3777 64.7804Z" fill="#F0F0F0"/>
<path d="M42.9321 62.8833C42.9321 62.7159 42.9321 62.5206 42.9598 62.3254C42.9876 62.1301 42.9876 61.9069 43.0431 61.6837C43.0709 61.4605 43.0987 61.2373 43.1264 61.0141C43.1542 60.7909 43.182 60.5677 43.2098 60.3446L43.5985 57.6942L42.7654 57.192L42.8765 56.5225L45.3203 56.2156L45.6813 56.4388L45.1814 60.4283C45.1259 60.8746 45.0703 61.2652 45.0148 61.6558C44.9593 62.0464 44.9315 62.3533 44.9315 62.6322C44.9315 62.8275 44.9593 63.0228 44.987 63.1623C45.0148 63.3018 45.0703 63.4134 45.1536 63.4971C45.237 63.5808 45.3203 63.6366 45.4313 63.6645C45.5424 63.6924 45.6535 63.7203 45.7923 63.7203C45.959 63.7203 46.0978 63.6924 46.2644 63.6366C46.4311 63.5808 46.5699 63.525 46.7087 63.4413C46.8476 63.3576 46.9864 63.246 47.0975 63.1344C47.2086 63.0228 47.3475 62.9112 47.4308 62.7717L48.3194 56.2435H50.2911L49.3469 63.1344C49.2913 63.4971 49.3746 63.6924 49.569 63.6924C49.5968 63.6924 49.6523 63.6924 49.6801 63.6645C49.7079 63.6645 49.7634 63.6366 49.819 63.6087C49.8745 63.5808 49.93 63.525 50.0134 63.4971C50.0967 63.4413 50.18 63.3855 50.2911 63.3018L50.5132 63.7761C50.4854 63.8319 50.4021 63.9156 50.2911 64.0272C50.18 64.1388 50.0411 64.2504 49.8745 64.3619C49.7079 64.4735 49.5135 64.5851 49.2913 64.6688C49.0692 64.7525 48.8193 64.8083 48.5693 64.8083C48.125 64.8083 47.8195 64.6967 47.6252 64.5014C47.4585 64.2783 47.403 63.9993 47.4585 63.6645L47.4308 63.6087C47.2919 63.7482 47.1531 63.9156 46.9864 64.0551C46.8198 64.1946 46.6532 64.3341 46.4311 64.4456C46.2367 64.5572 46.0145 64.6409 45.7646 64.7246C45.5147 64.8083 45.237 64.8362 44.9315 64.8362C44.6816 64.8362 44.4316 64.8083 44.2095 64.7525C43.9873 64.6967 43.7652 64.5851 43.5708 64.4456C43.3764 64.3062 43.2375 64.1109 43.0987 63.8598C42.9876 63.5529 42.9321 63.246 42.9321 62.8833Z" fill="#F0F0F0"/>
<path d="M54.4565 64.7804C54.3177 64.7804 54.1788 64.7804 54.04 64.7525C53.9011 64.7246 53.7623 64.7246 53.6234 64.6967L53.0958 68.5746H51.1797L52.6515 57.6663L51.8462 57.192L51.9572 56.5783L54.3454 56.1877L54.7064 56.383L54.6231 57.1362C54.7342 57.0246 54.8731 56.913 55.0119 56.8015C55.1508 56.6899 55.3174 56.5783 55.484 56.4946C55.6506 56.4109 55.845 56.3272 56.0394 56.2993C56.2338 56.2435 56.4559 56.2156 56.7059 56.2156C57.1224 56.2156 57.5112 56.2993 57.8167 56.4388C58.1221 56.5783 58.3998 56.8015 58.5942 57.0804C58.8164 57.3594 58.9552 57.6942 59.0663 58.0569C59.1774 58.4475 59.2329 58.8659 59.2329 59.3402C59.2329 59.7866 59.1774 60.233 59.0941 60.6794C58.983 61.1257 58.8441 61.5442 58.6498 61.9348C58.4554 62.3254 58.2332 62.7159 57.9555 63.0507C57.6778 63.3855 57.3723 63.6924 57.0113 63.9435C56.6503 64.1946 56.2616 64.3899 55.8172 64.5294C55.4285 64.7246 54.9564 64.7804 54.4565 64.7804ZM56.0672 57.3873C55.9005 57.3873 55.7339 57.4152 55.5951 57.471C55.4562 57.5268 55.3174 57.6105 55.1785 57.6942C55.0397 57.7779 54.9286 57.8895 54.8175 58.0011C54.7064 58.1127 54.5954 58.2243 54.5121 58.3638L53.7623 63.6924C53.9011 63.7482 54.0122 63.7761 54.1788 63.804C54.3177 63.8319 54.4843 63.8319 54.6787 63.8319C54.9841 63.8319 55.2618 63.7761 55.484 63.6366C55.7339 63.525 55.9283 63.3297 56.1227 63.1344C56.3171 62.9112 56.4837 62.6602 56.6226 62.3812C56.7614 62.1022 56.8725 61.7953 56.9558 61.4605C57.0391 61.1257 57.0946 60.7909 57.1502 60.4562C57.178 60.0935 57.2057 59.7587 57.2057 59.4239C57.2057 59.117 57.178 58.8659 57.1224 58.6149C57.0669 58.3638 57.0113 58.1406 56.9003 57.9732C56.8169 57.8058 56.6781 57.6663 56.5393 57.5547C56.4282 57.4431 56.2616 57.3873 56.0672 57.3873Z" fill="#F0F0F0"/>
<path d="M60.3437 61.5163C60.3437 60.7909 60.4548 60.0935 60.7047 59.4518C60.9269 58.8101 61.2601 58.2522 61.6767 57.7779C62.0932 57.3036 62.5653 56.913 63.1207 56.6341C63.6761 56.3551 64.2593 56.2156 64.9257 56.2156C65.3145 56.2156 65.6478 56.2714 65.9255 56.3551C66.2032 56.4388 66.4531 56.5783 66.6197 56.7456C66.8141 56.913 66.9529 57.0804 67.0362 57.3036C67.1196 57.5268 67.1751 57.75 67.1751 58.0011C67.1751 58.3917 67.1196 58.7264 66.9529 59.0333C66.7863 59.3402 66.5919 59.6192 66.342 59.8424C66.0921 60.0935 65.7866 60.2888 65.4534 60.4562C65.1201 60.6235 64.7869 60.763 64.4259 60.8746C64.0926 60.9862 63.7316 61.0699 63.3984 61.1257C63.0652 61.1815 62.7597 61.2094 62.482 61.2094C62.482 61.5163 62.482 61.8232 62.5375 62.1022C62.5931 62.3812 62.6764 62.6322 62.7875 62.8554C62.8985 63.0786 63.0652 63.246 63.2596 63.3855C63.4539 63.525 63.6761 63.5808 63.9538 63.5808C64.2037 63.5808 64.4259 63.5529 64.648 63.4971C64.8702 63.4413 65.0646 63.3576 65.259 63.246C65.4534 63.1344 65.62 63.0228 65.8144 62.8833C65.981 62.7438 66.1476 62.6043 66.2865 62.437L66.703 63.1344C66.5919 63.2739 66.4531 63.4692 66.2587 63.6366C66.0643 63.804 65.8421 63.9993 65.5645 64.1667C65.2868 64.3341 64.9813 64.4735 64.6203 64.5851C64.2593 64.6967 63.8705 64.7525 63.4539 64.7525C62.8985 64.7525 62.4265 64.6688 62.0377 64.4736C61.6489 64.2783 61.3157 64.0272 61.0657 63.7203C60.8158 63.4134 60.6492 63.0507 60.5381 62.6601C60.3993 62.3254 60.3437 61.9348 60.3437 61.5163ZM62.5098 60.3725C62.7597 60.3725 63.0374 60.3167 63.3429 60.233C63.6483 60.1214 63.9538 59.9819 64.2315 59.7866C64.5092 59.5913 64.7314 59.3681 64.9257 59.117C65.1201 58.8659 65.2034 58.5312 65.2034 58.1964C65.2034 57.8616 65.1201 57.6105 65.0091 57.4431C64.8702 57.2757 64.7036 57.192 64.4814 57.192C64.2593 57.192 64.0649 57.2478 63.8983 57.3315C63.7316 57.4431 63.565 57.5547 63.4262 57.7221C63.2873 57.8895 63.1762 58.0848 63.0652 58.308C62.9541 58.5312 62.8708 58.7543 62.7875 58.9775C62.7042 59.2007 62.6486 59.4518 62.6208 59.675C62.5653 59.954 62.5375 60.1772 62.5098 60.3725Z" fill="#F0F0F0"/>
<path d="M68.3414 64.7804L69.2856 57.6942L68.5358 57.2478L68.6469 56.6062L70.7852 56.2156L71.1462 56.4388L71.0351 58.2522C71.1184 58.029 71.2295 57.8058 71.3683 57.5547C71.5072 57.3036 71.7016 57.0804 71.9237 56.8851C72.1459 56.6899 72.3958 56.5225 72.6458 56.383C72.9234 56.2435 73.2011 56.1877 73.5344 56.1877C73.6455 56.1877 73.7288 56.1877 73.8121 56.2156C73.8954 56.2435 73.9787 56.2714 74.0065 56.2993L73.5899 58.4475C73.5344 58.4196 73.4511 58.3638 73.3122 58.3359C73.1734 58.2801 73.0068 58.2801 72.7846 58.2801C72.618 58.2801 72.4514 58.308 72.2847 58.3359C72.1181 58.3638 71.9515 58.4196 71.7849 58.5033C71.6183 58.587 71.4794 58.6707 71.3406 58.8102C71.2017 58.9217 71.0906 59.0891 70.9796 59.2565L70.2575 64.7804H68.3414V64.7804Z" fill="#F0F0F0"/>
<path d="M74.2564 61.7116C74.2564 61.2931 74.3119 60.8468 74.3953 60.4283C74.4786 59.9819 74.6174 59.5634 74.8118 59.1728C75.0062 58.7544 75.2283 58.3917 75.506 58.029C75.7837 57.6663 76.0892 57.3594 76.478 57.1083C76.8668 56.8573 77.2555 56.6341 77.6999 56.4946C78.1442 56.3551 78.644 56.2714 79.1717 56.2714C79.4494 56.2714 79.7271 56.2993 80.0325 56.3551C80.338 56.4109 80.5879 56.4946 80.8101 56.5504L81.8098 56.2714L80.8656 63.1623C80.8378 63.3576 80.8656 63.4971 80.9211 63.5808C80.9767 63.6645 81.06 63.7203 81.1433 63.7203C81.1988 63.7203 81.3099 63.6924 81.3932 63.6645C81.5043 63.6087 81.6432 63.525 81.8098 63.4134L82.0319 63.8877C82.0042 63.9435 81.9209 64.0272 81.8098 64.1388C81.6987 64.2504 81.5599 64.362 81.3932 64.4736C81.2266 64.5852 81.0322 64.6689 80.8378 64.7525C80.6157 64.8362 80.3935 64.8641 80.1436 64.8641C79.8104 64.8641 79.5327 64.7804 79.3105 64.6131C79.1161 64.4457 79.005 64.1946 79.0328 63.8598L78.9773 63.7761C78.8384 63.9156 78.6996 64.0551 78.5329 64.1946C78.3663 64.3341 78.1997 64.4457 78.0053 64.5573C77.8109 64.6688 77.6166 64.7525 77.3944 64.8083C77.1722 64.8641 76.9501 64.892 76.7002 64.892C76.2558 64.892 75.8948 64.8083 75.5894 64.641C75.2839 64.4736 75.034 64.2504 74.8396 63.9714C74.6452 63.6924 74.5063 63.3576 74.3953 62.9949C74.3119 62.5486 74.2564 62.1301 74.2564 61.7116ZM77.4222 63.6645C77.561 63.6645 77.6999 63.6366 77.8387 63.5808C77.9776 63.525 78.1164 63.4692 78.2552 63.3855C78.3941 63.3018 78.5052 63.1902 78.6163 63.0786C78.7273 62.967 78.8384 62.8554 78.9495 62.7439L79.6715 57.2757C79.5604 57.2478 79.4494 57.2199 79.3383 57.192C79.2272 57.1641 79.0883 57.1641 78.9773 57.1641C78.6718 57.1641 78.3663 57.2199 78.1164 57.3594C77.8665 57.4989 77.6443 57.6663 77.4499 57.8895C77.2555 58.1127 77.0889 58.3638 76.9501 58.6707C76.8112 58.9776 76.7001 59.2844 76.6168 59.5913C76.5335 59.9261 76.478 60.2609 76.4225 60.5957C76.3669 60.9304 76.3669 61.2652 76.3669 61.5721C76.3669 62.2138 76.4502 62.716 76.6446 63.0786C76.7835 63.4971 77.0612 63.6645 77.4222 63.6645Z" fill="#F0F0F0"/>
<path d="M88.78 63.6924C88.6967 63.804 88.5856 63.9435 88.4745 64.083C88.3356 64.2225 88.1968 64.362 88.0024 64.4735C87.808 64.613 87.6136 64.7246 87.3915 64.8362C87.1693 64.9478 86.8916 65.0315 86.6139 65.0873C86.6695 65.2547 86.725 65.4779 86.7528 65.7011C86.7805 65.9243 86.8083 66.1754 86.8083 66.3706C86.8083 67.096 86.6417 67.6261 86.2807 68.0167C85.9197 68.3793 85.392 68.5746 84.6978 68.5746C84.5867 68.5746 84.4756 68.5746 84.3646 68.5467C84.2535 68.5467 84.1146 68.5188 84.0036 68.4909C83.8925 68.463 83.7814 68.463 83.6703 68.4351C83.5592 68.4072 83.5037 68.3793 83.4759 68.3514L83.6703 67.2355C83.7259 67.2634 83.8369 67.2913 83.948 67.3192C84.0591 67.3471 84.1702 67.3471 84.2813 67.3471C84.67 67.3471 85.0033 67.2355 85.2254 66.9844C85.4754 66.7333 85.5864 66.3427 85.6142 65.8127C85.6142 65.6732 85.6142 65.5616 85.6142 65.45C85.6142 65.3384 85.5864 65.2268 85.5864 65.1431C85.1977 65.1152 84.8644 65.0036 84.5312 64.8641C84.1979 64.7246 83.948 64.4735 83.7536 64.1667C83.5592 63.8598 83.3648 63.525 83.2538 63.1065C83.1427 62.688 83.0872 62.2138 83.0594 61.6837C83.0594 61.2652 83.0872 60.8467 83.1705 60.4283C83.2538 60.0098 83.3648 59.5913 83.5315 59.1728C83.6981 58.7543 83.9203 58.3917 84.1702 58.029C84.4201 57.6663 84.7256 57.3594 85.0588 57.0804C85.392 56.8014 85.7808 56.6062 86.1974 56.4388C86.6139 56.2714 87.086 56.2156 87.5859 56.2156C87.7247 56.2156 87.8636 56.2156 88.0302 56.2435C88.1968 56.2714 88.3356 56.2714 88.5023 56.2993C88.6689 56.3272 88.8077 56.3551 88.9466 56.383C89.0854 56.4109 89.2243 56.4667 89.3354 56.5225L88.8077 58.5033C88.8077 58.5033 88.78 58.5033 88.7522 58.4754C88.7244 58.4754 88.6689 58.4754 88.6411 58.4475C88.5856 58.4475 88.5578 58.4475 88.53 58.4475C88.5023 58.4475 88.4745 58.4475 88.4745 58.4475C88.3912 58.3359 88.2801 58.1964 88.169 58.0848C88.0579 57.9453 87.9469 57.8337 87.8358 57.7221C87.7247 57.6105 87.6136 57.5268 87.5026 57.4431C87.3915 57.3594 87.2804 57.3315 87.1971 57.3315C86.9194 57.3315 86.6695 57.4152 86.4195 57.6105C86.1696 57.8058 85.9474 58.0848 85.7531 58.4475C85.5587 58.8101 85.4198 59.2565 85.3087 59.7587C85.1977 60.2888 85.1421 60.8467 85.1699 61.4884C85.1699 62.3254 85.3087 62.9391 85.5309 63.3018C85.7531 63.6645 86.1141 63.8598 86.5306 63.8598C86.7528 63.8598 86.9194 63.8319 87.1138 63.804C87.2804 63.7482 87.447 63.6924 87.5859 63.6087C87.7247 63.525 87.8913 63.4413 88.0302 63.3297C88.169 63.2181 88.3079 63.0786 88.4467 62.967L88.78 63.6924Z" fill="#F0F0F0"/>
<path d="M89.752 61.7116C89.752 61.2931 89.8075 60.8468 89.8908 60.4283C89.9741 59.9819 90.113 59.5634 90.3073 59.1728C90.5017 58.7544 90.7239 58.3917 91.0016 58.029C91.2793 57.6663 91.5848 57.3594 91.9735 57.1083C92.3623 56.8573 92.7511 56.6341 93.1954 56.4946C93.6397 56.3551 94.1396 56.2714 94.6672 56.2714C94.9449 56.2714 95.2226 56.2993 95.5281 56.3551C95.8335 56.4109 96.0835 56.4946 96.3056 56.5504L97.3053 56.2714L96.3612 63.1623C96.3334 63.3576 96.3612 63.4971 96.4167 63.5808C96.4722 63.6645 96.5556 63.7203 96.6389 63.7203C96.6944 63.7203 96.8055 63.6924 96.8888 63.6645C96.9999 63.6087 97.1387 63.525 97.3053 63.4134L97.5275 63.8877C97.4997 63.9435 97.4164 64.0272 97.3053 64.1388C97.1943 64.2504 97.0554 64.362 96.8888 64.4736C96.7222 64.5852 96.5278 64.6689 96.3334 64.7526C96.1112 64.8363 95.8891 64.8641 95.6391 64.8641C95.3059 64.8641 95.0282 64.7805 94.8061 64.6131C94.6117 64.4457 94.5006 64.1946 94.5284 63.8598L94.4728 63.7761C94.334 63.9156 94.1951 64.0551 94.0285 64.1946C93.8619 64.3341 93.6953 64.4457 93.5009 64.5573C93.3065 64.6689 93.1121 64.7526 92.8899 64.8084C92.6678 64.8641 92.4456 64.892 92.1957 64.892C91.7514 64.892 91.3904 64.8084 91.0849 64.641C90.7794 64.4736 90.5295 64.2504 90.3351 63.9714C90.1407 63.6924 90.0019 63.3576 89.8908 62.9949C89.7797 62.5486 89.752 62.1301 89.752 61.7116ZM92.8899 63.6645C93.0288 63.6645 93.1676 63.6366 93.3065 63.5808C93.4453 63.525 93.5842 63.4692 93.723 63.3855C93.8619 63.3018 93.973 63.1902 94.084 63.0786C94.1951 62.967 94.3062 62.8554 94.4173 62.7439L95.1393 57.2757C95.0282 57.2478 94.9171 57.2199 94.8061 57.192C94.695 57.1641 94.5561 57.1641 94.445 57.1641C94.1396 57.1641 93.8341 57.2199 93.5842 57.3594C93.3343 57.4989 93.1121 57.6663 92.9177 57.8895C92.7233 58.1127 92.5567 58.3638 92.4178 58.6707C92.279 58.9775 92.1679 59.2844 92.0846 59.5913C92.0013 59.9261 91.9458 60.2609 91.8902 60.5957C91.8347 60.9304 91.8347 61.2652 91.8347 61.5721C91.8347 62.2138 91.918 62.716 92.1124 63.0786C92.279 63.4971 92.5289 63.6645 92.8899 63.6645ZM92.5012 54.5975L92.0291 53.8163C92.1124 53.6768 92.2235 53.5094 92.3345 53.3699C92.4456 53.2304 92.6122 53.0909 92.7789 52.9794C92.9455 52.8678 93.1121 52.7841 93.3065 52.7004C93.5009 52.6446 93.6675 52.5888 93.8619 52.5888C94.1396 52.5888 94.334 52.6446 94.5284 52.7283C94.7227 52.812 94.8616 52.9236 95.0004 53.0631C95.1393 53.1746 95.2781 53.2862 95.3892 53.3978C95.5281 53.5094 95.6669 53.5373 95.8335 53.5373C95.9724 53.5373 96.0835 53.5094 96.1945 53.4815C96.3056 53.4536 96.3889 53.3978 96.5 53.3141C96.5833 53.2583 96.6666 53.1746 96.7499 53.091C96.8332 53.0073 96.8888 52.9236 96.9721 52.8678L97.5275 53.6489C97.472 53.8163 97.3609 53.9837 97.2498 54.1232C97.1387 54.2906 96.9721 54.4301 96.8055 54.5417C96.6389 54.6533 96.4722 54.7649 96.2779 54.8207C96.0835 54.9044 95.8891 54.9323 95.6947 54.9323C95.4725 54.9323 95.3059 54.9044 95.1671 54.8765C95.0282 54.8207 94.8894 54.7649 94.7783 54.7091C94.6672 54.6533 94.5839 54.5696 94.5006 54.4859C94.4173 54.4022 94.334 54.3185 94.2507 54.2627C94.1673 54.2069 94.0563 54.1232 93.973 54.0953C93.8896 54.0674 93.7508 54.0116 93.612 54.0116C93.5009 54.0116 93.4176 54.0395 93.3065 54.0674C93.1954 54.0953 93.1121 54.1511 93.0288 54.2069C92.9455 54.2627 92.8344 54.3185 92.7511 54.3743C92.6678 54.4301 92.5845 54.5138 92.5012 54.5975Z" fill="#F0F0F0"/>
<path d="M98.4716 61.4605C98.4439 60.7631 98.5549 60.0935 98.7493 59.4797C98.9437 58.8381 99.2492 58.2801 99.638 57.8058C100.027 57.3315 100.499 56.941 101.054 56.662C101.61 56.383 102.221 56.2435 102.915 56.2435C103.942 56.2435 104.692 56.5225 105.247 57.0805C105.775 57.6384 106.053 58.4754 106.081 59.5355C106.108 60.233 105.997 60.9026 105.803 61.5442C105.608 62.1859 105.303 62.7439 104.914 63.2181C104.525 63.6924 104.053 64.083 103.498 64.362C102.943 64.6409 102.304 64.7804 101.637 64.7804C100.638 64.7804 99.8601 64.5015 99.3325 63.9156C98.8049 63.3576 98.5272 62.5207 98.4716 61.4605ZM101.943 63.8598C102.193 63.8598 102.415 63.804 102.609 63.6645C102.804 63.525 102.97 63.3576 103.137 63.1623C103.276 62.9391 103.415 62.6881 103.526 62.4091C103.637 62.1301 103.72 61.8232 103.776 61.4884C103.831 61.1815 103.887 60.8468 103.915 60.512C103.942 60.1772 103.942 59.8424 103.942 59.5355C103.914 58.7265 103.803 58.1406 103.609 57.7779C103.415 57.4152 103.081 57.2199 102.693 57.2199C102.443 57.2199 102.221 57.2757 102.026 57.4152C101.832 57.5547 101.637 57.7221 101.499 57.9174C101.36 58.1127 101.221 58.3917 101.11 58.6707C100.999 58.9497 100.915 59.2565 100.832 59.5634C100.777 59.8703 100.721 60.2051 100.693 60.5399C100.665 60.8747 100.665 61.1815 100.665 61.4884C100.693 62.2975 100.804 62.9112 100.999 63.3018C101.193 63.6645 101.499 63.8598 101.943 63.8598Z" fill="#F0F0F0"/>
<path d="M113.162 64.7804C112.718 64.7804 112.357 64.6967 112.023 64.5294C111.718 64.362 111.44 64.1388 111.246 63.8598C111.051 63.5808 110.885 63.246 110.801 62.8833C110.718 62.4928 110.663 62.1022 110.663 61.6837C110.663 61.2652 110.718 60.8188 110.801 60.4004C110.885 59.954 111.024 59.5355 111.218 59.1449C111.412 58.7264 111.635 58.3638 111.912 58.0011C112.19 57.6384 112.495 57.3315 112.856 57.0804C113.217 56.8293 113.606 56.6062 114.078 56.4667C114.523 56.3272 115.022 56.2435 115.55 56.2435C115.689 56.2435 115.828 56.2435 115.994 56.2714C116.133 56.2993 116.272 56.2993 116.439 56.3551L116.8 53.9L115.772 53.5931L115.911 52.9793L118.521 52.6725L118.938 52.8677L117.438 63.1344C117.411 63.3018 117.411 63.4413 117.466 63.5529C117.494 63.6645 117.577 63.6924 117.661 63.6924C117.716 63.6924 117.799 63.6645 117.91 63.6366C118.022 63.5808 118.133 63.4971 118.327 63.3855L118.549 63.8319C118.521 63.8877 118.438 63.9714 118.355 64.083C118.244 64.1946 118.133 64.3062 117.966 64.4178C117.799 64.5294 117.633 64.6409 117.411 64.7246C117.188 64.8083 116.966 64.8641 116.716 64.8641C116.328 64.8641 116.05 64.7525 115.883 64.5572C115.717 64.362 115.606 64.0551 115.606 63.6366C115.495 63.7761 115.356 63.9156 115.217 64.083C115.05 64.2225 114.884 64.362 114.689 64.4736C114.495 64.5852 114.273 64.6688 114.023 64.7525C113.689 64.7525 113.44 64.7804 113.162 64.7804ZM113.828 63.6645C113.995 63.6645 114.162 63.6366 114.328 63.5808C114.495 63.525 114.634 63.4413 114.773 63.3576C114.911 63.2739 115.05 63.1623 115.161 63.0507C115.272 62.9391 115.383 62.8275 115.467 62.688L116.272 57.4431C116.133 57.3594 115.994 57.2757 115.856 57.2478C115.717 57.2199 115.55 57.192 115.383 57.192C115.078 57.192 114.773 57.2478 114.523 57.3873C114.273 57.5268 114.051 57.6942 113.856 57.9174C113.662 58.1406 113.495 58.3917 113.356 58.6985C113.217 59.0054 113.106 59.3123 113.023 59.6471C112.94 59.9819 112.884 60.3167 112.829 60.6514C112.773 60.9862 112.773 61.321 112.773 61.6279C112.773 62.2696 112.884 62.7717 113.079 63.1344C113.217 63.4971 113.495 63.6645 113.828 63.6645Z" fill="#F0F0F0"/>
<path d="M119.632 61.5163C119.632 60.7909 119.743 60.0935 119.993 59.4518C120.215 58.8101 120.549 58.2522 120.965 57.7779C121.382 57.3036 121.854 56.913 122.409 56.6341C122.965 56.3551 123.548 56.2156 124.214 56.2156C124.603 56.2156 124.936 56.2714 125.214 56.3551C125.492 56.4388 125.742 56.5783 125.908 56.7456C126.103 56.913 126.241 57.0804 126.325 57.3036C126.408 57.5268 126.464 57.75 126.464 58.0011C126.464 58.3917 126.408 58.7264 126.241 59.0333C126.075 59.3402 125.88 59.6192 125.631 59.8424C125.381 60.0935 125.075 60.2888 124.742 60.4562C124.409 60.6235 124.075 60.763 123.714 60.8746C123.381 60.9862 123.02 61.0699 122.687 61.1257C122.354 61.1815 122.048 61.2094 121.771 61.2094C121.771 61.5163 121.771 61.8232 121.826 62.1022C121.882 62.3812 121.965 62.6322 122.076 62.8554C122.187 63.0786 122.354 63.246 122.548 63.3855C122.742 63.525 122.965 63.5808 123.242 63.5808C123.492 63.5808 123.714 63.5529 123.937 63.4971C124.159 63.4413 124.353 63.3576 124.548 63.246C124.742 63.1344 124.909 63.0228 125.103 62.8833C125.27 62.7438 125.436 62.6043 125.575 62.437L125.992 63.1344C125.88 63.2739 125.742 63.4692 125.547 63.6366C125.353 63.804 125.131 63.9993 124.853 64.1667C124.575 64.3341 124.27 64.4735 123.909 64.5851C123.548 64.6967 123.159 64.7525 122.742 64.7525C122.187 64.7525 121.715 64.6688 121.326 64.4736C120.937 64.2783 120.604 64.0272 120.354 63.7203C120.104 63.4134 119.938 63.0507 119.827 62.6601C119.688 62.3254 119.632 61.9348 119.632 61.5163ZM121.798 60.3725C122.048 60.3725 122.326 60.3167 122.631 60.233C122.937 60.1214 123.242 59.9819 123.52 59.7866C123.798 59.5913 124.02 59.3681 124.214 59.117C124.409 58.8659 124.492 58.5312 124.492 58.1964C124.492 57.8616 124.409 57.6105 124.298 57.4431C124.159 57.2757 123.992 57.192 123.77 57.192C123.548 57.192 123.353 57.2478 123.187 57.3315C123.02 57.4431 122.854 57.5547 122.715 57.7221C122.576 57.8895 122.465 58.0848 122.354 58.308C122.243 58.5312 122.159 58.7543 122.076 58.9775C121.993 59.2007 121.937 59.4518 121.909 59.675C121.854 59.954 121.826 60.1772 121.798 60.3725Z" fill="#F0F0F0"/>
<path d="M133.739 64.7804C133.323 64.7804 132.934 64.6967 132.601 64.5572C132.267 64.4178 131.99 64.1946 131.74 63.9156C131.518 63.6366 131.323 63.2739 131.184 62.8554C131.046 62.437 130.99 61.9627 130.99 61.4326C130.99 61.042 131.018 60.6514 131.101 60.233C131.184 59.8145 131.296 59.4239 131.462 59.0333C131.629 58.6428 131.851 58.2801 132.101 57.9453C132.351 57.6105 132.656 57.3036 132.989 57.0525C133.323 56.8014 133.711 56.6062 134.128 56.4388C134.545 56.2993 135.017 56.2156 135.517 56.2156C135.655 56.2156 135.794 56.2156 135.961 56.2435C136.127 56.2714 136.266 56.2714 136.433 56.2993C136.6 56.3272 136.738 56.3551 136.877 56.383C137.016 56.4109 137.155 56.4667 137.266 56.5225L136.738 58.4475C136.738 58.4475 136.711 58.4475 136.683 58.4196C136.655 58.4196 136.6 58.4196 136.572 58.3917C136.516 58.3917 136.488 58.3917 136.461 58.3917C136.433 58.3917 136.405 58.3917 136.405 58.3917C136.322 58.2801 136.211 58.1685 136.1 58.029C135.989 57.9174 135.878 57.7779 135.766 57.6942C135.655 57.5826 135.544 57.4989 135.433 57.4152C135.322 57.3315 135.211 57.3036 135.128 57.3036C134.85 57.3036 134.6 57.3873 134.35 57.5826C134.1 57.7779 133.878 58.029 133.684 58.3638C133.489 58.6985 133.35 59.117 133.239 59.6192C133.128 60.1214 133.073 60.6515 133.101 61.2652C133.101 62.0743 133.239 62.6322 133.462 62.9949C133.684 63.3576 134.045 63.525 134.461 63.525C134.683 63.525 134.85 63.4971 135.044 63.4692C135.211 63.4413 135.378 63.3576 135.517 63.3018C135.655 63.2181 135.822 63.1344 135.961 63.0228C136.1 62.9112 136.239 62.7996 136.377 62.6601L136.766 63.3297C136.683 63.4692 136.544 63.6087 136.35 63.7761C136.183 63.9435 135.961 64.1109 135.711 64.2504C135.461 64.3899 135.156 64.5294 134.85 64.613C134.489 64.7525 134.128 64.7804 133.739 64.7804Z" fill="#F0F0F0"/>
<path d="M138.266 64.7804L139.21 57.6942L138.46 57.2478L138.571 56.6062L140.709 56.2156L141.07 56.4388L140.959 58.2522C141.043 58.029 141.154 57.8058 141.293 57.5547C141.431 57.3036 141.626 57.0804 141.848 56.8851C142.07 56.6899 142.32 56.5225 142.57 56.383C142.848 56.2435 143.125 56.1877 143.459 56.1877C143.57 56.1877 143.653 56.1877 143.736 56.2156C143.82 56.2435 143.903 56.2714 143.931 56.2993L143.514 58.4475C143.459 58.4196 143.375 58.3638 143.236 58.3359C143.098 58.2801 142.931 58.2801 142.709 58.2801C142.542 58.2801 142.376 58.308 142.209 58.3359C142.042 58.3638 141.876 58.4196 141.709 58.5033C141.543 58.587 141.404 58.6707 141.265 58.8102C141.126 58.9217 141.015 59.0891 140.904 59.2565L140.182 64.7804H138.266V64.7804Z" fill="#F0F0F0"/>
<path d="M144.125 61.5163C144.125 60.7909 144.236 60.0935 144.486 59.4518C144.708 58.8102 145.042 58.2522 145.458 57.7779C145.875 57.3036 146.347 56.9131 146.902 56.6341C147.458 56.3551 148.041 56.2156 148.707 56.2156C149.096 56.2156 149.429 56.2714 149.707 56.3551C149.985 56.4388 150.235 56.5783 150.401 56.7457C150.596 56.913 150.734 57.0804 150.818 57.3036C150.901 57.5268 150.957 57.75 150.957 58.0011C150.957 58.3917 150.901 58.7265 150.734 59.0333C150.568 59.3402 150.373 59.6192 150.123 59.8424C149.874 60.0935 149.568 60.2888 149.235 60.4562C148.902 60.6236 148.568 60.763 148.207 60.8746C147.874 60.9862 147.513 61.0699 147.18 61.1257C146.847 61.1815 146.541 61.2094 146.263 61.2094C146.263 61.5163 146.263 61.8232 146.319 62.1022C146.375 62.3812 146.458 62.6322 146.569 62.8554C146.68 63.0786 146.847 63.246 147.041 63.3855C147.235 63.525 147.458 63.5808 147.735 63.5808C147.985 63.5808 148.207 63.5529 148.429 63.4971C148.652 63.4413 148.846 63.3576 149.04 63.246C149.235 63.1344 149.401 63.0228 149.596 62.8833C149.762 62.7438 149.929 62.6043 150.068 62.437L150.484 63.1344C150.373 63.2739 150.235 63.4692 150.04 63.6366C149.846 63.804 149.624 63.9993 149.346 64.1667C149.068 64.3341 148.763 64.4735 148.402 64.5851C148.041 64.6967 147.652 64.7525 147.235 64.7525C146.68 64.7525 146.208 64.6688 145.819 64.4736C145.43 64.2783 145.097 64.0272 144.847 63.7203C144.597 63.4134 144.431 63.0507 144.32 62.6601C144.181 62.3254 144.125 61.9348 144.125 61.5163ZM146.291 60.3725C146.541 60.3725 146.819 60.3167 147.124 60.233C147.43 60.1214 147.735 59.9819 148.013 59.7866C148.291 59.5913 148.513 59.3681 148.707 59.117C148.902 58.8659 148.985 58.5312 148.985 58.1964C148.985 57.8616 148.902 57.6105 148.79 57.4431C148.652 57.2757 148.485 57.192 148.263 57.192C148.041 57.192 147.846 57.2478 147.68 57.3315C147.513 57.4431 147.346 57.5547 147.208 57.7221C147.069 57.8895 146.958 58.0848 146.847 58.308C146.736 58.5312 146.652 58.7544 146.569 58.9775C146.486 59.2007 146.43 59.4518 146.402 59.675C146.347 59.954 146.319 60.1772 146.291 60.3725ZM148.374 55.6576L147.763 55.1275L150.096 51.9471L151.345 53.1747C151.29 53.2583 151.206 53.3699 151.095 53.5094C150.984 53.6489 150.818 53.7884 150.651 53.9558C150.484 54.1232 150.29 54.2906 150.096 54.458C149.901 54.6254 149.679 54.7928 149.485 54.9602C149.29 55.1275 149.096 55.267 148.902 55.3786C148.707 55.5181 148.541 55.6018 148.374 55.6576Z" fill="#F0F0F0"/>
<path d="M154.206 64.7804C153.761 64.7804 153.4 64.6967 153.067 64.5294C152.762 64.362 152.484 64.1388 152.289 63.8598C152.095 63.5808 151.928 63.246 151.845 62.8833C151.762 62.4928 151.706 62.1022 151.706 61.6837C151.706 61.2652 151.762 60.8188 151.845 60.4004C151.928 59.954 152.067 59.5355 152.262 59.1449C152.456 58.7264 152.678 58.3638 152.956 58.0011C153.234 57.6384 153.539 57.3315 153.9 57.0804C154.261 56.8293 154.65 56.6062 155.122 56.4667C155.566 56.3272 156.066 56.2435 156.594 56.2435C156.733 56.2435 156.871 56.2435 157.038 56.2714C157.177 56.2993 157.316 56.2993 157.482 56.3551L157.843 53.9L156.816 53.5931L156.955 52.9793L159.565 52.6725L159.982 52.8677L158.482 63.1344C158.454 63.3018 158.454 63.4413 158.51 63.5529C158.538 63.6645 158.621 63.6924 158.704 63.6924C158.76 63.6924 158.843 63.6645 158.954 63.6366C159.065 63.5808 159.176 63.4971 159.371 63.3855L159.593 63.8319C159.565 63.8877 159.482 63.9714 159.399 64.083C159.287 64.1946 159.176 64.3062 159.01 64.4178C158.843 64.5294 158.677 64.6409 158.454 64.7246C158.232 64.8083 158.01 64.8641 157.76 64.8641C157.371 64.8641 157.094 64.7525 156.927 64.5572C156.76 64.362 156.649 64.0551 156.649 63.6366C156.538 63.7761 156.399 63.9156 156.261 64.083C156.094 64.2225 155.927 64.362 155.733 64.4736C155.539 64.5852 155.316 64.6688 155.066 64.7525C154.733 64.7525 154.483 64.7804 154.206 64.7804ZM154.872 63.6645C155.039 63.6645 155.205 63.6366 155.372 63.5808C155.539 63.525 155.677 63.4413 155.816 63.3576C155.955 63.2739 156.094 63.1623 156.205 63.0507C156.316 62.9391 156.427 62.8275 156.51 62.688L157.316 57.4431C157.177 57.3594 157.038 57.2757 156.899 57.2478C156.76 57.2199 156.594 57.192 156.427 57.192C156.122 57.192 155.816 57.2478 155.566 57.3873C155.316 57.5268 155.094 57.6942 154.9 57.9174C154.705 58.1406 154.539 58.3917 154.4 58.6985C154.261 59.0054 154.15 59.3123 154.067 59.6471C153.983 59.9819 153.928 60.3167 153.872 60.6514C153.817 60.9862 153.817 61.321 153.817 61.6279C153.817 62.2696 153.928 62.7717 154.122 63.1344C154.261 63.4971 154.539 63.6645 154.872 63.6645Z" fill="#F0F0F0"/>
<path d="M161.148 63.804C161.176 63.525 161.231 63.1902 161.287 62.7717C161.342 62.3812 161.426 61.9069 161.481 61.4047C161.537 60.9025 161.648 60.3446 161.731 59.7587C161.815 59.1449 161.926 58.5312 162.009 57.8337L161.065 57.4152L161.176 56.8293L163.786 56.4667L164.175 56.6341L163.203 63.1623C163.147 63.525 163.231 63.6924 163.425 63.6924C163.508 63.6924 163.592 63.6645 163.703 63.6087C163.814 63.5529 163.953 63.4413 164.147 63.3018L164.369 63.7761C164.342 63.8319 164.258 63.9156 164.147 64.0272C164.036 64.1388 163.897 64.2504 163.731 64.362C163.564 64.4735 163.37 64.5851 163.12 64.6688C162.898 64.7525 162.648 64.8083 162.37 64.8083C161.953 64.8083 161.62 64.7246 161.426 64.5572C161.176 64.362 161.093 64.1109 161.148 63.804ZM163.37 54.988C163.231 54.988 163.092 54.9601 162.981 54.9043C162.87 54.8485 162.759 54.7649 162.648 54.6812C162.564 54.5696 162.481 54.458 162.425 54.3464C162.37 54.2069 162.342 54.0953 162.342 53.9558C162.342 53.7884 162.37 53.621 162.453 53.4536C162.509 53.2862 162.62 53.1467 162.731 53.0351C162.842 52.9235 162.981 52.8399 163.12 52.7562C163.286 52.7004 163.453 52.6446 163.62 52.6446C163.786 52.6446 163.953 52.6725 164.064 52.7283C164.203 52.7841 164.314 52.8678 164.397 52.9514C164.48 53.0351 164.564 53.1467 164.619 53.2862C164.675 53.3978 164.703 53.5373 164.703 53.6768C164.703 53.8442 164.675 54.0116 164.619 54.179C164.564 54.3464 164.48 54.4859 164.369 54.5975C164.258 54.7091 164.119 54.8206 163.953 54.8764C163.758 54.9322 163.564 54.988 163.37 54.988Z" fill="#F0F0F0"/>
<path d="M165.897 63.4971C165.897 63.4692 165.897 63.4413 165.897 63.3855C165.897 63.3576 165.897 63.2739 165.924 63.1623C165.952 63.0507 165.952 62.9391 165.98 62.7439C166.008 62.5486 166.036 62.3533 166.063 62.0743L166.674 57.3315H165.786L165.952 56.5783L166.841 56.2156C166.952 56.1319 167.035 55.9924 167.146 55.8529C167.257 55.6855 167.341 55.5181 167.424 55.3507C167.507 55.1834 167.618 54.9881 167.702 54.7928C167.785 54.5975 167.868 54.4022 167.952 54.2348H169.035L168.785 56.2435H170.479L170.312 57.3594H168.646L168.035 61.8232C168.007 62.0743 167.979 62.2975 167.952 62.4928C167.924 62.6881 167.924 62.8276 167.924 62.967C167.924 63.1902 167.952 63.3576 168.035 63.4692C168.118 63.5529 168.257 63.6087 168.479 63.6087C168.563 63.6087 168.674 63.6087 168.785 63.5808C168.896 63.5529 169.007 63.525 169.146 63.4692C169.257 63.4134 169.368 63.3855 169.479 63.3018C169.59 63.246 169.701 63.1902 169.784 63.1065L169.951 63.6924C169.84 63.804 169.729 63.9435 169.535 64.0551C169.368 64.1946 169.146 64.3062 168.924 64.4178C168.701 64.5294 168.424 64.6131 168.146 64.6968C167.868 64.7805 167.563 64.8084 167.257 64.8084C167.063 64.8084 166.896 64.7805 166.73 64.7526C166.563 64.7247 166.424 64.641 166.285 64.5294C166.147 64.4178 166.063 64.3062 165.98 64.1388C165.924 63.9435 165.897 63.7482 165.897 63.4971Z" fill="#F0F0F0"/>
<path d="M170.812 61.4605C170.784 60.7631 170.895 60.0935 171.09 59.4797C171.284 58.8381 171.589 58.2801 171.978 57.8058C172.367 57.3315 172.839 56.941 173.394 56.662C173.95 56.383 174.561 56.2435 175.255 56.2435C176.283 56.2435 177.032 56.5225 177.588 57.0805C178.115 57.6384 178.393 58.4754 178.421 59.5355C178.449 60.233 178.338 60.9026 178.143 61.5442C177.949 62.1859 177.643 62.7439 177.254 63.2181C176.866 63.6924 176.394 64.083 175.838 64.362C175.283 64.6409 174.644 64.7804 173.978 64.7804C172.978 64.7804 172.2 64.5015 171.673 63.9156C171.117 63.3576 170.84 62.5207 170.812 61.4605ZM174.255 63.8598C174.505 63.8598 174.727 63.804 174.922 63.6645C175.116 63.525 175.283 63.3576 175.449 63.1623C175.588 62.9391 175.727 62.6881 175.838 62.4091C175.949 62.1301 176.033 61.8232 176.088 61.4884C176.144 61.1815 176.199 60.8468 176.227 60.512C176.255 60.1772 176.255 59.8424 176.255 59.5355C176.227 58.7265 176.116 58.1406 175.922 57.7779C175.727 57.4152 175.394 57.2199 175.005 57.2199C174.755 57.2199 174.533 57.2757 174.339 57.4152C174.144 57.5547 173.95 57.7221 173.811 57.9174C173.672 58.1127 173.533 58.3917 173.422 58.6707C173.311 58.9497 173.228 59.2565 173.145 59.5634C173.089 59.8703 173.033 60.2051 173.006 60.5399C172.978 60.8747 172.978 61.1815 172.978 61.4884C173.006 62.2975 173.117 62.9112 173.311 63.3018C173.506 63.6645 173.839 63.8598 174.255 63.8598Z" fill="#F0F0F0"/>
</svg>
