<svg width="62" height="39" viewBox="0 0 62 39" fill="none" xmlns="http://www.w3.org/2000/svg">
<path fill-rule="evenodd" clip-rule="evenodd" d="M57.6056 4.26831H4.23059V34.7683H57.6056V4.26831ZM4.23059 0.455811C3.21945 0.455811 2.24973 0.857483 1.53475 1.57247C0.819764 2.28745 0.418091 3.25717 0.418091 4.26831L0.418091 34.7683C0.418091 35.7794 0.819764 36.7492 1.53475 37.4642C2.24973 38.1791 3.21945 38.5808 4.23059 38.5808H57.6056C58.6167 38.5808 59.5865 38.1791 60.3014 37.4642C61.0164 36.7492 61.4181 35.7794 61.4181 34.7683V4.26831C61.4181 3.25717 61.0164 2.28745 60.3014 1.57247C59.5865 0.857483 58.6167 0.455811 57.6056 0.455811H4.23059Z" fill="#1D1F55"/>
<path d="M49.9806 4.26831C49.9806 6.29059 50.7839 8.23004 52.2139 9.66C53.6439 11.09 55.5833 11.8933 57.6056 11.8933V4.26831H49.9806ZM11.8556 4.26831C11.8556 6.29059 11.0522 8.23004 9.62228 9.66C8.19232 11.09 6.25287 11.8933 4.23059 11.8933V4.26831H11.8556ZM49.9806 34.7683C49.9806 32.746 50.7839 30.8066 52.2139 29.3766C53.6439 27.9467 55.5833 27.1433 57.6056 27.1433V34.7683H49.9806ZM11.8556 34.7683C11.8556 32.746 11.0522 30.8066 9.62228 29.3766C8.19232 27.9467 6.25287 27.1433 4.23059 27.1433V34.7683H11.8556ZM38.5431 19.5183C38.5431 21.5406 37.7397 23.48 36.3098 24.91C34.8798 26.34 32.9404 27.1433 30.9181 27.1433C28.8958 27.1433 26.9564 26.34 25.5264 24.91C24.0964 23.48 23.2931 21.5406 23.2931 19.5183C23.2931 17.496 24.0964 15.5566 25.5264 14.1266C26.9564 12.6967 28.8958 11.8933 30.9181 11.8933C32.9404 11.8933 34.8798 12.6967 36.3098 14.1266C37.7397 15.5566 38.5431 17.496 38.5431 19.5183Z" fill="#1D1F55"/>
</svg>
