<svg width="44" height="40" viewBox="0 0 44 40" fill="none" xmlns="http://www.w3.org/2000/svg">
<path d="M37.7463 0.369843C39.3044 0.369843 40.7987 0.988814 41.9005 2.09059C43.0023 3.19237 43.6213 4.6867 43.6213 6.24484V10.1615H39.7046V33.6615C39.7046 35.2197 39.0856 36.714 37.9838 37.8158C36.8821 38.9175 35.3877 39.5365 33.8296 39.5365H6.41293C4.85479 39.5365 3.36046 38.9175 2.25868 37.8158C1.1569 36.714 0.537933 35.2197 0.537933 33.6615V29.7448H31.8713V33.6615C31.8713 34.1412 32.0474 34.6041 32.3662 34.9626C32.6849 35.321 33.1241 35.55 33.6005 35.6061L33.8296 35.6198C34.3093 35.6198 34.7722 35.4437 35.1307 35.1249C35.4891 34.8062 35.7181 34.367 35.7742 33.8906L35.7879 33.6615V4.28651H10.3296C9.84994 4.28657 9.38698 4.46267 9.02854 4.78141C8.67009 5.10015 8.44109 5.53935 8.38497 6.01572L8.37127 6.24484V25.8282H4.4546V6.24484C4.4546 4.6867 5.07357 3.19237 6.17535 2.09059C7.27712 0.988814 8.77145 0.369843 10.3296 0.369843H37.7463Z" fill="#1D1F55"/>
</svg>
