<svg width="40" height="41" viewBox="0 0 40 41" fill="none" xmlns="http://www.w3.org/2000/svg">
<path d="M16.7791 34.7032C20.477 34.7024 24.0683 33.4397 26.9812 31.1162L36.1395 40.4577L39.0854 37.4529L29.927 28.1114C32.2062 25.14 33.4449 21.476 33.4458 17.7032C33.4458 8.32981 25.9687 0.703186 16.7791 0.703186C7.58955 0.703186 0.112465 8.32981 0.112465 17.7032C0.112465 27.0766 7.58955 34.7032 16.7791 34.7032ZM16.7791 4.95319C23.6729 4.95319 29.2791 10.6716 29.2791 17.7032C29.2791 24.7348 23.6729 30.4532 16.7791 30.4532C9.88538 30.4532 4.27913 24.7348 4.27913 17.7032C4.27913 10.6716 9.88538 4.95319 16.7791 4.95319Z" fill="#1D1F55"/>
</svg>
